<mxfile host="Electron" modified="2024-05-11T08:49:27.135Z" agent="Mozilla/5.0 (X11; Linux x86_64) AppleWebKit/537.36 (KHTML, like Gecko) draw.io/24.2.5 Chrome/120.0.6099.109 Electron/28.1.0 Safari/537.36" etag="2eDaJrkp4X-nXvY_KmoM" version="24.2.5" type="device">
  <diagram name="Page-1" id="WDJ_Z6O_Jv-4hxg5FpdB">
    <mxGraphModel dx="896" dy="2647" grid="1" gridSize="10" guides="1" tooltips="1" connect="1" arrows="1" fold="1" page="1" pageScale="1" pageWidth="850" pageHeight="1100" math="0" shadow="0">
      <root>
        <mxCell id="0" />
        <mxCell id="1" parent="0" />
        <mxCell id="sdlYAYd8WSPYQElmw3_2-1" value="admin" style="whiteSpace=wrap;html=1;aspect=fixed;" parent="1" vertex="1">
          <mxGeometry x="810" y="-1410" width="80" height="80" as="geometry" />
        </mxCell>
        <mxCell id="sdlYAYd8WSPYQElmw3_2-3" style="edgeStyle=orthogonalEdgeStyle;rounded=0;orthogonalLoop=1;jettySize=auto;html=1;" parent="1" source="sdlYAYd8WSPYQElmw3_2-2" edge="1">
          <mxGeometry relative="1" as="geometry">
            <mxPoint x="180" y="840" as="targetPoint" />
          </mxGeometry>
        </mxCell>
        <mxCell id="sdlYAYd8WSPYQElmw3_2-15" style="edgeStyle=orthogonalEdgeStyle;rounded=0;orthogonalLoop=1;jettySize=auto;html=1;entryX=0.5;entryY=1;entryDx=0;entryDy=0;" parent="1" source="sdlYAYd8WSPYQElmw3_2-2" target="sdlYAYd8WSPYQElmw3_2-13" edge="1">
          <mxGeometry relative="1" as="geometry">
            <mxPoint x="350" y="620" as="targetPoint" />
            <Array as="points">
              <mxPoint x="180" y="680" />
              <mxPoint x="390" y="680" />
            </Array>
          </mxGeometry>
        </mxCell>
        <mxCell id="sdlYAYd8WSPYQElmw3_2-2" value="banners" style="rounded=0;whiteSpace=wrap;html=1;" parent="1" vertex="1">
          <mxGeometry x="120" y="720" width="120" height="60" as="geometry" />
        </mxCell>
        <mxCell id="sdlYAYd8WSPYQElmw3_2-4" value="title,&lt;div&gt;desc&lt;/div&gt;&lt;div&gt;redirection_link,&lt;/div&gt;&lt;div&gt;image&lt;/div&gt;" style="rounded=0;whiteSpace=wrap;html=1;" parent="1" vertex="1">
          <mxGeometry x="120" y="840" width="120" height="90" as="geometry" />
        </mxCell>
        <mxCell id="sdlYAYd8WSPYQElmw3_2-9" value="" style="edgeStyle=orthogonalEdgeStyle;rounded=0;orthogonalLoop=1;jettySize=auto;html=1;" parent="1" source="sdlYAYd8WSPYQElmw3_2-6" target="sdlYAYd8WSPYQElmw3_2-8" edge="1">
          <mxGeometry relative="1" as="geometry" />
        </mxCell>
        <mxCell id="sdlYAYd8WSPYQElmw3_2-6" value="product_ids" style="rounded=0;whiteSpace=wrap;html=1;" parent="1" vertex="1">
          <mxGeometry x="330" y="840" width="120" height="90" as="geometry" />
        </mxCell>
        <mxCell id="sdlYAYd8WSPYQElmw3_2-7" style="edgeStyle=orthogonalEdgeStyle;rounded=0;orthogonalLoop=1;jettySize=auto;html=1;" parent="1" source="sdlYAYd8WSPYQElmw3_2-8" edge="1">
          <mxGeometry relative="1" as="geometry">
            <mxPoint x="390" y="840" as="targetPoint" />
          </mxGeometry>
        </mxCell>
        <mxCell id="sdlYAYd8WSPYQElmw3_2-17" style="edgeStyle=orthogonalEdgeStyle;rounded=0;orthogonalLoop=1;jettySize=auto;html=1;entryX=0.5;entryY=1;entryDx=0;entryDy=0;" parent="1" source="sdlYAYd8WSPYQElmw3_2-8" target="sdlYAYd8WSPYQElmw3_2-13" edge="1">
          <mxGeometry relative="1" as="geometry">
            <mxPoint x="350" y="610" as="targetPoint" />
            <Array as="points">
              <mxPoint x="390" y="640" />
              <mxPoint x="390" y="640" />
            </Array>
          </mxGeometry>
        </mxCell>
        <mxCell id="sdlYAYd8WSPYQElmw3_2-8" value="populat_products" style="rounded=0;whiteSpace=wrap;html=1;" parent="1" vertex="1">
          <mxGeometry x="330" y="720" width="120" height="60" as="geometry" />
        </mxCell>
        <mxCell id="sdlYAYd8WSPYQElmw3_2-16" style="edgeStyle=orthogonalEdgeStyle;rounded=0;orthogonalLoop=1;jettySize=auto;html=1;entryX=0.5;entryY=1;entryDx=0;entryDy=0;" parent="1" source="sdlYAYd8WSPYQElmw3_2-10" target="sdlYAYd8WSPYQElmw3_2-13" edge="1">
          <mxGeometry relative="1" as="geometry">
            <Array as="points">
              <mxPoint x="605" y="680" />
              <mxPoint x="390" y="680" />
            </Array>
          </mxGeometry>
        </mxCell>
        <mxCell id="sdlYAYd8WSPYQElmw3_2-10" value="special_offers" style="rounded=0;whiteSpace=wrap;html=1;" parent="1" vertex="1">
          <mxGeometry x="545" y="720" width="120" height="60" as="geometry" />
        </mxCell>
        <mxCell id="sdlYAYd8WSPYQElmw3_2-11" style="edgeStyle=orthogonalEdgeStyle;rounded=0;orthogonalLoop=1;jettySize=auto;html=1;" parent="1" source="sdlYAYd8WSPYQElmw3_2-10" edge="1">
          <mxGeometry relative="1" as="geometry">
            <mxPoint x="605" y="840" as="targetPoint" />
          </mxGeometry>
        </mxCell>
        <mxCell id="sdlYAYd8WSPYQElmw3_2-12" value="product_ids,&lt;div&gt;new_price&lt;/div&gt;" style="rounded=0;whiteSpace=wrap;html=1;" parent="1" vertex="1">
          <mxGeometry x="545" y="840" width="120" height="90" as="geometry" />
        </mxCell>
        <mxCell id="sdlYAYd8WSPYQElmw3_2-13" value="home_page" style="rounded=0;whiteSpace=wrap;html=1;" parent="1" vertex="1">
          <mxGeometry x="330" y="550" width="120" height="60" as="geometry" />
        </mxCell>
        <mxCell id="sdlYAYd8WSPYQElmw3_2-19" style="edgeStyle=orthogonalEdgeStyle;rounded=0;orthogonalLoop=1;jettySize=auto;html=1;entryX=0.5;entryY=1;entryDx=0;entryDy=0;" parent="1" source="sdlYAYd8WSPYQElmw3_2-20" target="sdlYAYd8WSPYQElmw3_2-31" edge="1">
          <mxGeometry relative="1" as="geometry">
            <mxPoint x="1010" y="620" as="targetPoint" />
            <Array as="points">
              <mxPoint x="840" y="680" />
              <mxPoint x="1050" y="680" />
            </Array>
          </mxGeometry>
        </mxCell>
        <mxCell id="sdlYAYd8WSPYQElmw3_2-20" value="all" style="rounded=0;whiteSpace=wrap;html=1;" parent="1" vertex="1">
          <mxGeometry x="780" y="720" width="120" height="60" as="geometry" />
        </mxCell>
        <mxCell id="sdlYAYd8WSPYQElmw3_2-25" style="edgeStyle=orthogonalEdgeStyle;rounded=0;orthogonalLoop=1;jettySize=auto;html=1;entryX=0.5;entryY=1;entryDx=0;entryDy=0;" parent="1" source="sdlYAYd8WSPYQElmw3_2-26" target="sdlYAYd8WSPYQElmw3_2-31" edge="1">
          <mxGeometry relative="1" as="geometry">
            <mxPoint x="1010" y="610" as="targetPoint" />
            <Array as="points">
              <mxPoint x="1050" y="640" />
              <mxPoint x="1050" y="640" />
            </Array>
          </mxGeometry>
        </mxCell>
        <mxCell id="sdlYAYd8WSPYQElmw3_2-26" value="/category" style="rounded=0;whiteSpace=wrap;html=1;" parent="1" vertex="1">
          <mxGeometry x="990" y="720" width="120" height="60" as="geometry" />
        </mxCell>
        <mxCell id="sdlYAYd8WSPYQElmw3_2-27" style="edgeStyle=orthogonalEdgeStyle;rounded=0;orthogonalLoop=1;jettySize=auto;html=1;entryX=0.5;entryY=1;entryDx=0;entryDy=0;" parent="1" source="sdlYAYd8WSPYQElmw3_2-28" target="sdlYAYd8WSPYQElmw3_2-31" edge="1">
          <mxGeometry relative="1" as="geometry">
            <Array as="points">
              <mxPoint x="1265" y="680" />
              <mxPoint x="1050" y="680" />
            </Array>
          </mxGeometry>
        </mxCell>
        <mxCell id="sdlYAYd8WSPYQElmw3_2-28" value="query" style="rounded=0;whiteSpace=wrap;html=1;" parent="1" vertex="1">
          <mxGeometry x="1205" y="720" width="120" height="60" as="geometry" />
        </mxCell>
        <mxCell id="sdlYAYd8WSPYQElmw3_2-31" value="products" style="rounded=0;whiteSpace=wrap;html=1;" parent="1" vertex="1">
          <mxGeometry x="990" y="550" width="120" height="60" as="geometry" />
        </mxCell>
        <mxCell id="sdlYAYd8WSPYQElmw3_2-32" style="edgeStyle=orthogonalEdgeStyle;rounded=0;orthogonalLoop=1;jettySize=auto;html=1;entryX=0.5;entryY=1;entryDx=0;entryDy=0;exitX=0;exitY=0.5;exitDx=0;exitDy=0;" parent="1" source="sdlYAYd8WSPYQElmw3_2-37" target="sdlYAYd8WSPYQElmw3_2-38" edge="1">
          <mxGeometry relative="1" as="geometry">
            <mxPoint x="1600" y="620" as="targetPoint" />
            <mxPoint x="1430" y="720" as="sourcePoint" />
            <Array as="points">
              <mxPoint x="1430" y="750" />
              <mxPoint x="1430" y="680" />
              <mxPoint x="1640" y="680" />
            </Array>
          </mxGeometry>
        </mxCell>
        <mxCell id="sdlYAYd8WSPYQElmw3_2-34" style="edgeStyle=orthogonalEdgeStyle;rounded=0;orthogonalLoop=1;jettySize=auto;html=1;entryX=0.5;entryY=1;entryDx=0;entryDy=0;" parent="1" target="sdlYAYd8WSPYQElmw3_2-38" edge="1">
          <mxGeometry relative="1" as="geometry">
            <mxPoint x="1600" y="610" as="targetPoint" />
            <mxPoint x="1640" y="720" as="sourcePoint" />
            <Array as="points">
              <mxPoint x="1640" y="640" />
              <mxPoint x="1640" y="640" />
            </Array>
          </mxGeometry>
        </mxCell>
        <mxCell id="sdlYAYd8WSPYQElmw3_2-36" style="edgeStyle=orthogonalEdgeStyle;rounded=0;orthogonalLoop=1;jettySize=auto;html=1;entryX=0.5;entryY=1;entryDx=0;entryDy=0;" parent="1" source="sdlYAYd8WSPYQElmw3_2-37" target="sdlYAYd8WSPYQElmw3_2-38" edge="1">
          <mxGeometry relative="1" as="geometry">
            <Array as="points">
              <mxPoint x="1855" y="680" />
              <mxPoint x="1640" y="680" />
            </Array>
          </mxGeometry>
        </mxCell>
        <mxCell id="sdlYAYd8WSPYQElmw3_2-37" value="products/trending" style="rounded=0;whiteSpace=wrap;html=1;" parent="1" vertex="1">
          <mxGeometry x="1580" y="720" width="120" height="60" as="geometry" />
        </mxCell>
        <mxCell id="sdlYAYd8WSPYQElmw3_2-38" value="trending" style="rounded=0;whiteSpace=wrap;html=1;" parent="1" vertex="1">
          <mxGeometry x="1580" y="550" width="120" height="60" as="geometry" />
        </mxCell>
        <mxCell id="sdlYAYd8WSPYQElmw3_2-41" style="edgeStyle=orthogonalEdgeStyle;rounded=0;orthogonalLoop=1;jettySize=auto;html=1;entryX=0.5;entryY=0;entryDx=0;entryDy=0;" parent="1" source="sdlYAYd8WSPYQElmw3_2-39" target="sdlYAYd8WSPYQElmw3_2-40" edge="1">
          <mxGeometry relative="1" as="geometry" />
        </mxCell>
        <mxCell id="sdlYAYd8WSPYQElmw3_2-39" value="product&lt;div&gt;schema&lt;/div&gt;" style="whiteSpace=wrap;html=1;aspect=fixed;strokeColor=#194500;shadow=1;fillColor=#011D00;" parent="1" vertex="1">
          <mxGeometry x="495" y="1280" width="80" height="80" as="geometry" />
        </mxCell>
        <mxCell id="sdlYAYd8WSPYQElmw3_2-40" value="title,&lt;div&gt;price,&lt;/div&gt;&lt;div&gt;desciption,&lt;/div&gt;&lt;div&gt;category,&lt;/div&gt;&lt;div&gt;images,&lt;/div&gt;&lt;div&gt;rating,&lt;/div&gt;&lt;div&gt;views,&lt;/div&gt;&lt;div&gt;reviews:{id_of_reviews}&lt;/div&gt;&lt;div&gt;qunatity&lt;/div&gt;&lt;div&gt;brand,&lt;/div&gt;&lt;div&gt;size,&lt;/div&gt;&lt;div&gt;color,&lt;/div&gt;&lt;div&gt;material,&lt;/div&gt;&lt;div&gt;technical_specifications,&lt;/div&gt;&lt;div&gt;related_products&lt;/div&gt;" style="whiteSpace=wrap;html=1;aspect=fixed;strokeColor=#194500;shadow=1;fillColor=#131D00;" parent="1" vertex="1">
          <mxGeometry x="405" y="1450" width="260" height="260" as="geometry" />
        </mxCell>
        <mxCell id="sdlYAYd8WSPYQElmw3_2-42" style="edgeStyle=orthogonalEdgeStyle;rounded=0;orthogonalLoop=1;jettySize=auto;html=1;entryX=0.5;entryY=1;entryDx=0;entryDy=0;" parent="1" source="sdlYAYd8WSPYQElmw3_2-43" target="sdlYAYd8WSPYQElmw3_2-47" edge="1">
          <mxGeometry relative="1" as="geometry">
            <mxPoint x="2140" y="580" as="targetPoint" />
            <Array as="points">
              <mxPoint x="1970" y="640" />
              <mxPoint x="2180" y="640" />
            </Array>
          </mxGeometry>
        </mxCell>
        <mxCell id="sdlYAYd8WSPYQElmw3_2-43" value="all" style="rounded=0;whiteSpace=wrap;html=1;" parent="1" vertex="1">
          <mxGeometry x="1910" y="680" width="120" height="60" as="geometry" />
        </mxCell>
        <mxCell id="sdlYAYd8WSPYQElmw3_2-44" style="edgeStyle=orthogonalEdgeStyle;rounded=0;orthogonalLoop=1;jettySize=auto;html=1;entryX=0.5;entryY=1;entryDx=0;entryDy=0;" parent="1" source="sdlYAYd8WSPYQElmw3_2-45" target="sdlYAYd8WSPYQElmw3_2-47" edge="1">
          <mxGeometry relative="1" as="geometry">
            <mxPoint x="2140" y="570" as="targetPoint" />
            <Array as="points">
              <mxPoint x="2180" y="600" />
              <mxPoint x="2180" y="600" />
            </Array>
          </mxGeometry>
        </mxCell>
        <mxCell id="sdlYAYd8WSPYQElmw3_2-45" value="/category" style="rounded=0;whiteSpace=wrap;html=1;" parent="1" vertex="1">
          <mxGeometry x="2120" y="680" width="120" height="60" as="geometry" />
        </mxCell>
        <mxCell id="sdlYAYd8WSPYQElmw3_2-46" style="edgeStyle=orthogonalEdgeStyle;rounded=0;orthogonalLoop=1;jettySize=auto;html=1;entryX=0.5;entryY=1;entryDx=0;entryDy=0;" parent="1" target="sdlYAYd8WSPYQElmw3_2-47" edge="1">
          <mxGeometry relative="1" as="geometry">
            <mxPoint x="2395" y="680" as="sourcePoint" />
            <Array as="points">
              <mxPoint x="2395" y="640" />
              <mxPoint x="2180" y="640" />
            </Array>
          </mxGeometry>
        </mxCell>
        <mxCell id="sdlYAYd8WSPYQElmw3_2-47" value="checkout" style="rounded=0;whiteSpace=wrap;html=1;" parent="1" vertex="1">
          <mxGeometry x="2120" y="510" width="120" height="60" as="geometry" />
        </mxCell>
        <mxCell id="sdlYAYd8WSPYQElmw3_2-48" value="/category" style="rounded=0;whiteSpace=wrap;html=1;" parent="1" vertex="1">
          <mxGeometry x="2340" y="680" width="120" height="60" as="geometry" />
        </mxCell>
        <mxCell id="sdlYAYd8WSPYQElmw3_2-60" style="edgeStyle=orthogonalEdgeStyle;rounded=0;orthogonalLoop=1;jettySize=auto;html=1;entryX=0.5;entryY=1;entryDx=0;entryDy=0;" parent="1" source="sdlYAYd8WSPYQElmw3_2-49" target="sdlYAYd8WSPYQElmw3_2-1" edge="1">
          <mxGeometry relative="1" as="geometry" />
        </mxCell>
        <mxCell id="sdlYAYd8WSPYQElmw3_2-75" value="&lt;b style=&quot;background-color: rgb(0, 240, 24);&quot;&gt;checkAdmin&lt;/b&gt;" style="edgeLabel;html=1;align=center;verticalAlign=middle;resizable=0;points=[];" parent="sdlYAYd8WSPYQElmw3_2-60" vertex="1" connectable="0">
          <mxGeometry x="0.7104" y="1" relative="1" as="geometry">
            <mxPoint x="1" y="140" as="offset" />
          </mxGeometry>
        </mxCell>
        <mxCell id="sdlYAYd8WSPYQElmw3_2-49" value="/" style="rounded=0;whiteSpace=wrap;html=1;" parent="1" vertex="1">
          <mxGeometry x="805" y="-930" width="120" height="60" as="geometry" />
        </mxCell>
        <mxCell id="sdlYAYd8WSPYQElmw3_2-64" style="edgeStyle=orthogonalEdgeStyle;rounded=0;orthogonalLoop=1;jettySize=auto;html=1;entryX=0.5;entryY=1;entryDx=0;entryDy=0;" parent="1" source="sdlYAYd8WSPYQElmw3_2-50" target="sdlYAYd8WSPYQElmw3_2-49" edge="1">
          <mxGeometry relative="1" as="geometry">
            <Array as="points">
              <mxPoint x="825" y="-760" />
              <mxPoint x="865" y="-760" />
            </Array>
          </mxGeometry>
        </mxCell>
        <mxCell id="sdlYAYd8WSPYQElmw3_2-50" value="/slides" style="rounded=0;whiteSpace=wrap;html=1;" parent="1" vertex="1">
          <mxGeometry x="765" y="-700" width="120" height="60" as="geometry" />
        </mxCell>
        <mxCell id="sdlYAYd8WSPYQElmw3_2-51" value="/products" style="rounded=0;whiteSpace=wrap;html=1;" parent="1" vertex="1">
          <mxGeometry x="625" y="-700" width="120" height="60" as="geometry" />
        </mxCell>
        <mxCell id="sdlYAYd8WSPYQElmw3_2-65" style="edgeStyle=orthogonalEdgeStyle;rounded=0;orthogonalLoop=1;jettySize=auto;html=1;" parent="1" source="sdlYAYd8WSPYQElmw3_2-52" edge="1">
          <mxGeometry relative="1" as="geometry">
            <mxPoint x="865" y="-860" as="targetPoint" />
            <Array as="points">
              <mxPoint x="965" y="-760" />
              <mxPoint x="866" y="-760" />
              <mxPoint x="866" y="-860" />
            </Array>
          </mxGeometry>
        </mxCell>
        <mxCell id="sdlYAYd8WSPYQElmw3_2-52" value="/orders" style="rounded=0;whiteSpace=wrap;html=1;" parent="1" vertex="1">
          <mxGeometry x="905" y="-700" width="120" height="60" as="geometry" />
        </mxCell>
        <mxCell id="sdlYAYd8WSPYQElmw3_2-67" style="edgeStyle=orthogonalEdgeStyle;rounded=0;orthogonalLoop=1;jettySize=auto;html=1;" parent="1" source="sdlYAYd8WSPYQElmw3_2-53" edge="1">
          <mxGeometry relative="1" as="geometry">
            <mxPoint x="865" y="-840" as="targetPoint" />
            <Array as="points">
              <mxPoint x="1255" y="-760" />
              <mxPoint x="866" y="-760" />
              <mxPoint x="866" y="-840" />
            </Array>
          </mxGeometry>
        </mxCell>
        <mxCell id="sdlYAYd8WSPYQElmw3_2-53" value="/reviews" style="rounded=0;whiteSpace=wrap;html=1;" parent="1" vertex="1">
          <mxGeometry x="1195" y="-700" width="120" height="60" as="geometry" />
        </mxCell>
        <mxCell id="sdlYAYd8WSPYQElmw3_2-63" style="edgeStyle=orthogonalEdgeStyle;rounded=0;orthogonalLoop=1;jettySize=auto;html=1;" parent="1" source="sdlYAYd8WSPYQElmw3_2-54" edge="1">
          <mxGeometry relative="1" as="geometry">
            <mxPoint x="865" y="-850" as="targetPoint" />
            <Array as="points">
              <mxPoint x="545" y="-760" />
              <mxPoint x="866" y="-760" />
              <mxPoint x="866" y="-850" />
            </Array>
          </mxGeometry>
        </mxCell>
        <mxCell id="sdlYAYd8WSPYQElmw3_2-54" value="/stats" style="rounded=0;whiteSpace=wrap;html=1;" parent="1" vertex="1">
          <mxGeometry x="485" y="-700" width="120" height="60" as="geometry" />
        </mxCell>
        <mxCell id="sdlYAYd8WSPYQElmw3_2-62" style="edgeStyle=orthogonalEdgeStyle;rounded=0;orthogonalLoop=1;jettySize=auto;html=1;" parent="1" source="sdlYAYd8WSPYQElmw3_2-55" edge="1">
          <mxGeometry relative="1" as="geometry">
            <mxPoint x="865" y="-850" as="targetPoint" />
            <Array as="points">
              <mxPoint x="405" y="-760" />
              <mxPoint x="866" y="-760" />
              <mxPoint x="866" y="-850" />
            </Array>
          </mxGeometry>
        </mxCell>
        <mxCell id="sdlYAYd8WSPYQElmw3_2-55" value="/categories" style="rounded=0;whiteSpace=wrap;html=1;" parent="1" vertex="1">
          <mxGeometry x="345" y="-700" width="120" height="60" as="geometry" />
        </mxCell>
        <mxCell id="sdlYAYd8WSPYQElmw3_2-61" style="edgeStyle=orthogonalEdgeStyle;rounded=0;orthogonalLoop=1;jettySize=auto;html=1;" parent="1" source="sdlYAYd8WSPYQElmw3_2-56" edge="1">
          <mxGeometry relative="1" as="geometry">
            <mxPoint x="865" y="-860" as="targetPoint" />
            <Array as="points">
              <mxPoint x="245" y="-760" />
              <mxPoint x="866" y="-760" />
              <mxPoint x="866" y="-860" />
            </Array>
          </mxGeometry>
        </mxCell>
        <mxCell id="sdlYAYd8WSPYQElmw3_2-71" style="edgeStyle=orthogonalEdgeStyle;rounded=0;orthogonalLoop=1;jettySize=auto;html=1;" parent="1" source="sdlYAYd8WSPYQElmw3_2-56" target="sdlYAYd8WSPYQElmw3_2-72" edge="1">
          <mxGeometry relative="1" as="geometry">
            <mxPoint x="245" y="-470" as="targetPoint" />
          </mxGeometry>
        </mxCell>
        <mxCell id="sdlYAYd8WSPYQElmw3_2-56" value="/" style="rounded=0;whiteSpace=wrap;html=1;" parent="1" vertex="1">
          <mxGeometry x="185" y="-700" width="120" height="60" as="geometry" />
        </mxCell>
        <mxCell id="sdlYAYd8WSPYQElmw3_2-66" style="edgeStyle=orthogonalEdgeStyle;rounded=0;orthogonalLoop=1;jettySize=auto;html=1;" parent="1" source="sdlYAYd8WSPYQElmw3_2-57" edge="1">
          <mxGeometry relative="1" as="geometry">
            <mxPoint x="865" y="-840" as="targetPoint" />
            <Array as="points">
              <mxPoint x="1115" y="-760" />
              <mxPoint x="866" y="-760" />
              <mxPoint x="866" y="-840" />
            </Array>
          </mxGeometry>
        </mxCell>
        <mxCell id="sdlYAYd8WSPYQElmw3_2-57" value="/users" style="rounded=0;whiteSpace=wrap;html=1;" parent="1" vertex="1">
          <mxGeometry x="1055" y="-700" width="120" height="60" as="geometry" />
        </mxCell>
        <mxCell id="sdlYAYd8WSPYQElmw3_2-70" style="edgeStyle=orthogonalEdgeStyle;rounded=0;orthogonalLoop=1;jettySize=auto;html=1;" parent="1" source="sdlYAYd8WSPYQElmw3_2-58" edge="1">
          <mxGeometry relative="1" as="geometry">
            <mxPoint x="865" y="-840" as="targetPoint" />
            <Array as="points">
              <mxPoint x="1535" y="-760" />
              <mxPoint x="866" y="-760" />
              <mxPoint x="866" y="-840" />
            </Array>
          </mxGeometry>
        </mxCell>
        <mxCell id="sdlYAYd8WSPYQElmw3_2-58" value="/settings" style="rounded=0;whiteSpace=wrap;html=1;" parent="1" vertex="1">
          <mxGeometry x="1475" y="-700" width="120" height="60" as="geometry" />
        </mxCell>
        <mxCell id="sdlYAYd8WSPYQElmw3_2-68" style="edgeStyle=orthogonalEdgeStyle;rounded=0;orthogonalLoop=1;jettySize=auto;html=1;" parent="1" source="sdlYAYd8WSPYQElmw3_2-59" edge="1">
          <mxGeometry relative="1" as="geometry">
            <mxPoint x="865" y="-820" as="targetPoint" />
            <Array as="points">
              <mxPoint x="1395" y="-760" />
              <mxPoint x="866" y="-760" />
              <mxPoint x="866" y="-820" />
            </Array>
          </mxGeometry>
        </mxCell>
        <mxCell id="sdlYAYd8WSPYQElmw3_2-59" value="/tickets" style="rounded=0;whiteSpace=wrap;html=1;" parent="1" vertex="1">
          <mxGeometry x="1335" y="-700" width="120" height="60" as="geometry" />
        </mxCell>
        <mxCell id="sdlYAYd8WSPYQElmw3_2-72" value="popular_products(sort_by_views[10])&lt;div&gt;visitors(sort_by_views[10])&lt;br&gt;&lt;/div&gt;&lt;div&gt;total_views&lt;/div&gt;&lt;div&gt;total_orders&lt;/div&gt;&lt;div&gt;total_delivery,&lt;/div&gt;&lt;div&gt;total_user&lt;/div&gt;" style="whiteSpace=wrap;html=1;aspect=fixed;" parent="1" vertex="1">
          <mxGeometry x="95" y="-420" width="300" height="300" as="geometry" />
        </mxCell>
        <mxCell id="sdlYAYd8WSPYQElmw3_2-74" style="edgeStyle=orthogonalEdgeStyle;rounded=0;orthogonalLoop=1;jettySize=auto;html=1;entryX=0.5;entryY=1;entryDx=0;entryDy=0;" parent="1" source="sdlYAYd8WSPYQElmw3_2-73" target="sdlYAYd8WSPYQElmw3_2-55" edge="1">
          <mxGeometry relative="1" as="geometry" />
        </mxCell>
        <mxCell id="sdlYAYd8WSPYQElmw3_2-73" value="/&lt;div&gt;/create&amp;nbsp;&lt;/div&gt;&lt;div&gt;/update&lt;/div&gt;&lt;div&gt;/delete&lt;/div&gt;&lt;div&gt;&lt;br&gt;&lt;/div&gt;" style="whiteSpace=wrap;html=1;aspect=fixed;" parent="1" vertex="1">
          <mxGeometry x="255" y="-20" width="300" height="300" as="geometry" />
        </mxCell>
        <mxCell id="sdlYAYd8WSPYQElmw3_2-77" style="edgeStyle=orthogonalEdgeStyle;rounded=0;orthogonalLoop=1;jettySize=auto;html=1;entryX=0.5;entryY=1;entryDx=0;entryDy=0;" parent="1" source="sdlYAYd8WSPYQElmw3_2-76" target="sdlYAYd8WSPYQElmw3_2-51" edge="1">
          <mxGeometry relative="1" as="geometry" />
        </mxCell>
        <mxCell id="sdlYAYd8WSPYQElmw3_2-76" value="/&lt;div&gt;/create&amp;nbsp;&lt;/div&gt;&lt;div&gt;/update&lt;/div&gt;&lt;div&gt;/delete&lt;/div&gt;&lt;div&gt;&lt;br&gt;&lt;/div&gt;" style="whiteSpace=wrap;html=1;aspect=fixed;" parent="1" vertex="1">
          <mxGeometry x="435" y="-410" width="300" height="300" as="geometry" />
        </mxCell>
        <mxCell id="sdlYAYd8WSPYQElmw3_2-79" style="edgeStyle=orthogonalEdgeStyle;rounded=0;orthogonalLoop=1;jettySize=auto;html=1;entryX=0.5;entryY=1;entryDx=0;entryDy=0;" parent="1" source="sdlYAYd8WSPYQElmw3_2-78" target="sdlYAYd8WSPYQElmw3_2-50" edge="1">
          <mxGeometry relative="1" as="geometry" />
        </mxCell>
        <mxCell id="sdlYAYd8WSPYQElmw3_2-78" value="/&lt;div&gt;/create&amp;nbsp;&lt;/div&gt;&lt;div&gt;/update&lt;/div&gt;&lt;div&gt;/delete&lt;/div&gt;&lt;div&gt;&lt;br&gt;&lt;/div&gt;" style="whiteSpace=wrap;html=1;aspect=fixed;" parent="1" vertex="1">
          <mxGeometry x="675" y="-20" width="300" height="300" as="geometry" />
        </mxCell>
        <mxCell id="sdlYAYd8WSPYQElmw3_2-81" style="edgeStyle=orthogonalEdgeStyle;rounded=0;orthogonalLoop=1;jettySize=auto;html=1;entryX=0.5;entryY=1;entryDx=0;entryDy=0;" parent="1" source="sdlYAYd8WSPYQElmw3_2-80" target="sdlYAYd8WSPYQElmw3_2-52" edge="1">
          <mxGeometry relative="1" as="geometry">
            <Array as="points">
              <mxPoint x="965" y="-500" />
              <mxPoint x="965" y="-500" />
            </Array>
          </mxGeometry>
        </mxCell>
        <mxCell id="sdlYAYd8WSPYQElmw3_2-80" value="/&lt;span style=&quot;background-color: initial;&quot;&gt;&amp;nbsp;&lt;/span&gt;&lt;div&gt;/update&lt;/div&gt;&lt;div&gt;/delete&lt;/div&gt;&lt;div&gt;&lt;br&gt;&lt;/div&gt;" style="whiteSpace=wrap;html=1;aspect=fixed;" parent="1" vertex="1">
          <mxGeometry x="825" y="-410" width="300" height="300" as="geometry" />
        </mxCell>
        <mxCell id="sdlYAYd8WSPYQElmw3_2-83" style="edgeStyle=orthogonalEdgeStyle;rounded=0;orthogonalLoop=1;jettySize=auto;html=1;entryX=0.5;entryY=1;entryDx=0;entryDy=0;" parent="1" source="sdlYAYd8WSPYQElmw3_2-82" target="sdlYAYd8WSPYQElmw3_2-57" edge="1">
          <mxGeometry relative="1" as="geometry">
            <Array as="points">
              <mxPoint x="1295" y="-470" />
              <mxPoint x="1115" y="-470" />
            </Array>
          </mxGeometry>
        </mxCell>
        <mxCell id="sdlYAYd8WSPYQElmw3_2-82" value="&lt;div&gt;/&lt;div&gt;/create&amp;nbsp;&lt;/div&gt;&lt;div&gt;/update&lt;/div&gt;&lt;div&gt;/delete&lt;/div&gt;&lt;div&gt;&lt;br&gt;&lt;/div&gt;&lt;/div&gt;" style="whiteSpace=wrap;html=1;aspect=fixed;" parent="1" vertex="1">
          <mxGeometry x="1145" y="-20" width="300" height="300" as="geometry" />
        </mxCell>
        <mxCell id="sdlYAYd8WSPYQElmw3_2-85" style="edgeStyle=orthogonalEdgeStyle;rounded=0;orthogonalLoop=1;jettySize=auto;html=1;entryX=0.5;entryY=1;entryDx=0;entryDy=0;" parent="1" source="sdlYAYd8WSPYQElmw3_2-84" target="sdlYAYd8WSPYQElmw3_2-53" edge="1">
          <mxGeometry relative="1" as="geometry">
            <Array as="points">
              <mxPoint x="1535" y="-510" />
              <mxPoint x="1255" y="-510" />
            </Array>
          </mxGeometry>
        </mxCell>
        <mxCell id="sdlYAYd8WSPYQElmw3_2-84" value="&lt;div&gt;/&lt;div&gt;/create&amp;nbsp;&lt;/div&gt;&lt;div&gt;/update&lt;/div&gt;&lt;div&gt;/delete&lt;/div&gt;&lt;div&gt;&lt;br&gt;&lt;/div&gt;&lt;/div&gt;" style="whiteSpace=wrap;html=1;aspect=fixed;" parent="1" vertex="1">
          <mxGeometry x="1385" y="-410" width="300" height="300" as="geometry" />
        </mxCell>
        <mxCell id="sdlYAYd8WSPYQElmw3_2-87" style="edgeStyle=orthogonalEdgeStyle;rounded=0;orthogonalLoop=1;jettySize=auto;html=1;entryX=0.5;entryY=1;entryDx=0;entryDy=0;" parent="1" source="sdlYAYd8WSPYQElmw3_2-86" target="sdlYAYd8WSPYQElmw3_2-59" edge="1">
          <mxGeometry relative="1" as="geometry">
            <Array as="points">
              <mxPoint x="1875" y="-540" />
              <mxPoint x="1395" y="-540" />
            </Array>
          </mxGeometry>
        </mxCell>
        <mxCell id="sdlYAYd8WSPYQElmw3_2-86" value="&lt;div&gt;/&lt;div&gt;/create&amp;nbsp;&lt;/div&gt;&lt;div&gt;/update&lt;/div&gt;&lt;div&gt;/delete&lt;/div&gt;&lt;div&gt;&lt;br&gt;&lt;/div&gt;&lt;/div&gt;" style="whiteSpace=wrap;html=1;aspect=fixed;" parent="1" vertex="1">
          <mxGeometry x="1725" y="-410" width="300" height="300" as="geometry" />
        </mxCell>
        <mxCell id="sdlYAYd8WSPYQElmw3_2-88" style="edgeStyle=orthogonalEdgeStyle;rounded=0;orthogonalLoop=1;jettySize=auto;html=1;entryX=0.5;entryY=0;entryDx=0;entryDy=0;" parent="1" source="sdlYAYd8WSPYQElmw3_2-89" target="sdlYAYd8WSPYQElmw3_2-90" edge="1">
          <mxGeometry relative="1" as="geometry" />
        </mxCell>
        <mxCell id="sdlYAYd8WSPYQElmw3_2-89" value="order&lt;div&gt;schema&lt;/div&gt;" style="whiteSpace=wrap;html=1;aspect=fixed;" parent="1" vertex="1">
          <mxGeometry x="820" y="1280" width="80" height="80" as="geometry" />
        </mxCell>
        <mxCell id="sdlYAYd8WSPYQElmw3_2-90" value="&lt;pre class=&quot;qb qc qd qe qf qh qi qj bo qk ba bj&quot;&gt;&lt;span data-selectable-paragraph=&quot;&quot; class=&quot;ql nx hi qi b bf qm qn l qo qp&quot; id=&quot;87b6&quot;&gt;ordered_by&lt;/span&gt;&lt;/pre&gt;&lt;pre class=&quot;qb qc qd qe qf qh qi qj bo qk ba bj&quot;&gt;items &lt;/pre&gt;&lt;pre class=&quot;qb qc qd qe qf qh qi qj bo qk ba bj&quot;&gt; bill &lt;span style=&quot;background-color: initial; font-family: Helvetica; white-space: normal;&quot;&gt;,&lt;/span&gt;&lt;/pre&gt;&lt;pre class=&quot;qb qc qd qe qf qh qi qj bo qk ba bj&quot;&gt;&lt;span data-selectable-paragraph=&quot;&quot; class=&quot;ql nx hi qi b bf qm qn l qo qp&quot;&gt; shipping ,&lt;br&gt; payment_status,&lt;/span&gt;&lt;/pre&gt;&lt;pre class=&quot;qb qc qd qe qf qh qi qj bo qk ba bj&quot;&gt;&lt;span data-selectable-paragraph=&quot;&quot; class=&quot;ql nx hi qi b bf qm qn l qo qp&quot;&gt;payment_type &lt;br&gt;delivery_status&lt;/span&gt;&lt;/pre&gt;&lt;pre class=&quot;qb qc qd qe qf qh qi qj bo qk ba bj&quot;&gt;&lt;span data-selectable-paragraph=&quot;&quot; class=&quot;ql nx hi qi b bf qm qn l qo qp&quot;&gt;date_added&lt;br&gt;&lt;/span&gt;&lt;/pre&gt;" style="whiteSpace=wrap;html=1;aspect=fixed;" parent="1" vertex="1">
          <mxGeometry x="710" y="1440" width="300" height="300" as="geometry" />
        </mxCell>
        <mxCell id="sdlYAYd8WSPYQElmw3_2-91" value="&lt;pre class=&quot;qb qc qd qe qf qh qi qj bo qk ba bj&quot;&gt;&lt;span data-selectable-paragraph=&quot;&quot; class=&quot;ql nx hi qi b bf qm qn l qo qp&quot; id=&quot;87b6&quot;&gt;creatd_by,&lt;/span&gt;&lt;/pre&gt;&lt;pre class=&quot;qb qc qd qe qf qh qi qj bo qk ba bj&quot;&gt;&lt;span data-selectable-paragraph=&quot;&quot; class=&quot;ql nx hi qi b bf qm qn l qo qp&quot;&gt;products:[]&lt;/span&gt;&lt;/pre&gt;&lt;pre class=&quot;qb qc qd qe qf qh qi qj bo qk ba bj&quot;&gt;active&lt;/pre&gt;&lt;pre class=&quot;qb qc qd qe qf qh qi qj bo qk ba bj&quot;&gt;modifiedOn&lt;/pre&gt;" style="whiteSpace=wrap;html=1;aspect=fixed;" parent="1" vertex="1">
          <mxGeometry x="1040" y="1440" width="300" height="300" as="geometry" />
        </mxCell>
        <mxCell id="sdlYAYd8WSPYQElmw3_2-92" value="cart&lt;div&gt;schema&lt;/div&gt;" style="whiteSpace=wrap;html=1;aspect=fixed;" parent="1" vertex="1">
          <mxGeometry x="1150" y="1280" width="80" height="80" as="geometry" />
        </mxCell>
        <mxCell id="sdlYAYd8WSPYQElmw3_2-93" style="edgeStyle=orthogonalEdgeStyle;rounded=0;orthogonalLoop=1;jettySize=auto;html=1;entryX=0.5;entryY=0;entryDx=0;entryDy=0;" parent="1" source="sdlYAYd8WSPYQElmw3_2-92" target="sdlYAYd8WSPYQElmw3_2-91" edge="1">
          <mxGeometry relative="1" as="geometry" />
        </mxCell>
      </root>
    </mxGraphModel>
  </diagram>
</mxfile>
